REM DIRINDEX 1\2,1\3
REM DIRNAME folder01,folder02,folder03
TITLE ""
FILE "Disc1Track08.mp3" MP3
  TRACK 01 AUDIO
    TITLE "0:"
    INDEX 01 00:00:00
  TRACK 02 AUDIO
    TITLE "3:cjc116_0957"
    INDEX 01 00:00:07
  TRACK 03 AUDIO
    TITLE "0:"
    INDEX 01 00:01:52
  TRACK 04 AUDIO
    TITLE "2:cjc116_0958"
    INDEX 01 00:02:30
  TRACK 05 AUDIO
    TITLE "0:"
    INDEX 01 00:03:43
  TRACK 06 AUDIO
    TITLE "2:cjc116_0959"
    INDEX 01 00:03:59
  TRACK 07 AUDIO
    TITLE "0:"
    INDEX 01 00:05:46
  TRACK 08 AUDIO
    TITLE "2:cjc116_0960"
    INDEX 01 00:06:14
  TRACK 09 AUDIO
    TITLE "0:"
    INDEX 01 00:08:03
  TRACK 10 AUDIO
    TITLE "2:cjc116_0961"
    INDEX 01 00:08:44
  TRACK 11 AUDIO
    TITLE "0:"
    INDEX 01 00:09:57
  TRACK 12 AUDIO
    TITLE "2:cjc116_0962"
    INDEX 01 00:09:67
  TRACK 13 AUDIO
    TITLE "0:"
    INDEX 01 00:11:29
  TRACK 14 AUDIO
    TITLE "2:cjc116_0963"
    INDEX 01 00:11:64
  TRACK 15 AUDIO
    TITLE "0:"
    INDEX 01 00:13:33
  TRACK 16 AUDIO
    TITLE "2:cjc116_0964"
    INDEX 01 00:14:04
  TRACK 17 AUDIO
    TITLE "0:"
    INDEX 01 00:15:13
  TRACK 18 AUDIO
    TITLE "2:cjc116_0965"
    INDEX 01 00:15:32
  TRACK 19 AUDIO
    TITLE "0:"
    INDEX 01 00:17:14
  TRACK 20 AUDIO
    TITLE "2:cjc116_0966"
    INDEX 01 00:17:49
  TRACK 21 AUDIO
    TITLE "0:"
    INDEX 01 00:19:67
  TRACK 22 AUDIO
    TITLE "2:cjc116_0967"
    INDEX 01 00:20:37
  TRACK 23 AUDIO
    TITLE "0:"
    INDEX 01 00:21:37
  TRACK 24 AUDIO
    TITLE "2:cjc116_0968"
    INDEX 01 00:21:58
  TRACK 25 AUDIO
    TITLE "0:"
    INDEX 01 00:23:28
  TRACK 26 AUDIO
    TITLE "2:cjc116_0969"
    INDEX 01 00:23:61
  TRACK 27 AUDIO
    TITLE "0:"
    INDEX 01 00:25:21
  TRACK 28 AUDIO
    TITLE "2:cjc116_0970"
    INDEX 01 00:25:62
  TRACK 29 AUDIO
    TITLE "0:"
    INDEX 01 00:26:66
  TRACK 30 AUDIO
    TITLE "2:cjc116_0971"
    INDEX 01 00:27:10
  TRACK 31 AUDIO
    TITLE "0:"
    INDEX 01 00:28:70
  TRACK 32 AUDIO
    TITLE "2:cjc116_0972"
    INDEX 01 00:29:27
  TRACK 33 AUDIO
    TITLE "0:"
    INDEX 01 00:30:73
  TRACK 34 AUDIO
    TITLE "2:cjc116_0973"
    INDEX 01 00:31:41
  TRACK 35 AUDIO
    TITLE "0:"
    INDEX 01 00:32:39
  TRACK 36 AUDIO
    TITLE "2:cjc116_0974"
    INDEX 01 00:32:68
  TRACK 37 AUDIO
    TITLE "0:"
    INDEX 01 00:35:12
  TRACK 38 AUDIO
    TITLE "2:cjc116_0975"
    INDEX 01 00:35:53
  TRACK 39 AUDIO
    TITLE "0:"
    INDEX 01 00:37:48
  TRACK 40 AUDIO
    TITLE "2:cjc116_0976"
    INDEX 01 00:38:08
  TRACK 41 AUDIO
    TITLE "0:"
    INDEX 01 00:39:23
  TRACK 42 AUDIO
    TITLE "2:cjc116_0977"
    INDEX 01 00:39:47
  TRACK 43 AUDIO
    TITLE "0:"
    INDEX 01 00:41:51
  TRACK 44 AUDIO
    TITLE "2:cjc116_0978"
    INDEX 01 00:42:10
  TRACK 45 AUDIO
    TITLE "0:"
    INDEX 01 00:43:56
  TRACK 46 AUDIO
    TITLE "2:cjc116_0979"
    INDEX 01 00:44:18
  TRACK 47 AUDIO
    TITLE "0:"
    INDEX 01 00:45:35
  TRACK 48 AUDIO
    TITLE "2:cjc116_0980"
    INDEX 01 00:45:49
  TRACK 49 AUDIO
    TITLE "0:"
    INDEX 01 00:47:48
  TRACK 50 AUDIO
    TITLE "2:cjc116_0981"
    INDEX 01 00:48:04
  TRACK 51 AUDIO
    TITLE "0:"
    INDEX 01 00:49:47
  TRACK 52 AUDIO
    TITLE "2:cjc116_0982"
    INDEX 01 00:50:13
  TRACK 53 AUDIO
    TITLE "0:"
    INDEX 01 00:51:20
  TRACK 54 AUDIO
    TITLE "2:cjc116_0983"
    INDEX 01 00:51:44
  TRACK 55 AUDIO
    TITLE "0:"
    INDEX 01 00:53:45
  TRACK 56 AUDIO
    TITLE "2:cjc116_0984"
    INDEX 01 00:54:05
  TRACK 57 AUDIO
    TITLE "0:"
    INDEX 01 00:55:63
  TRACK 58 AUDIO
    TITLE "2:cjc116_0985"
    INDEX 01 00:56:25
  TRACK 59 AUDIO
    TITLE "0:"
    INDEX 01 00:57:27
  TRACK 60 AUDIO
    TITLE "2:cjc116_0986"
    INDEX 01 00:57:46
  TRACK 61 AUDIO
    TITLE "0:"
    INDEX 01 00:59:45
  TRACK 62 AUDIO
    TITLE "2:cjc116_0987"
    INDEX 01 01:00:06
  TRACK 63 AUDIO
    TITLE "0:"
    INDEX 01 01:01:60
  TRACK 64 AUDIO
    TITLE "2:cjc116_0988"
    INDEX 01 01:02:20
  TRACK 65 AUDIO
    TITLE "0:"
    INDEX 01 01:03:65
  TRACK 66 AUDIO
    TITLE "2:cjc116_0989"
    INDEX 01 01:04:01
  TRACK 67 AUDIO
    TITLE "0:"
    INDEX 01 01:06:16
  TRACK 68 AUDIO
    TITLE "2:cjc116_0990"
    INDEX 01 01:06:53
  TRACK 69 AUDIO
    TITLE "0:"
    INDEX 01 01:08:23
  TRACK 70 AUDIO
    TITLE "2:cjc116_0991"
    INDEX 01 01:08:66
  TRACK 71 AUDIO
    TITLE "0:"
    INDEX 01 01:10:06
  TRACK 72 AUDIO
    TITLE "2:cjc116_0992"
    INDEX 01 01:10:26
  TRACK 73 AUDIO
    TITLE "0:"
    INDEX 01 01:11:68
  TRACK 74 AUDIO
    TITLE "2:cjc116_0993"
    INDEX 01 01:12:26
  TRACK 75 AUDIO
    TITLE "0:"
    INDEX 01 01:14:25
  TRACK 76 AUDIO
    TITLE "2:cjc116_0994"
    INDEX 01 01:14:66
  TRACK 77 AUDIO
    TITLE "0:"
    INDEX 01 01:15:72
  TRACK 78 AUDIO
    TITLE "2:cjc116_0995"
    INDEX 01 01:16:11
  TRACK 79 AUDIO
    TITLE "0:"
    INDEX 01 01:18:07
  TRACK 80 AUDIO
    TITLE "2:cjc116_0996"
    INDEX 01 01:18:43
  TRACK 81 AUDIO
    TITLE "0:"
    INDEX 01 01:20:14
  TRACK 82 AUDIO
    TITLE "2:cjc116_0997"
    INDEX 01 01:20:57
  TRACK 83 AUDIO
    TITLE "0:"
    INDEX 01 01:21:59
  TRACK 84 AUDIO
    TITLE "2:cjc116_0998"
    INDEX 01 01:22:09
  TRACK 85 AUDIO
    TITLE "0:"
    INDEX 01 01:23:58
  TRACK 86 AUDIO
    TITLE "2:cjc116_0999"
    INDEX 01 01:24:18
  TRACK 87 AUDIO
    TITLE "0:"
    INDEX 01 01:26:01
  TRACK 88 AUDIO
    TITLE "2:cjc116_1000"
    INDEX 01 01:26:44
  TRACK 89 AUDIO
    TITLE "0:"
    INDEX 01 01:27:65
  TRACK 90 AUDIO
    TITLE "2:cjc116_1001"
    INDEX 01 01:28:10
  TRACK 91 AUDIO
    TITLE "0:"
    INDEX 01 01:29:70
  TRACK 92 AUDIO
    TITLE "2:cjc116_1002"
    INDEX 01 01:30:26
  TRACK 93 AUDIO
    TITLE "0:"
    INDEX 01 01:32:25
  TRACK 94 AUDIO
    TITLE "2:cjc116_1003"
    INDEX 01 01:32:68
  TRACK 95 AUDIO
    TITLE "0:"
    INDEX 01 01:33:74
  TRACK 96 AUDIO
    TITLE "2:cjc116_1004"
    INDEX 01 01:34:20
  TRACK 97 AUDIO
    TITLE "0:"
    INDEX 01 01:36:11
  TRACK 98 AUDIO
    TITLE "2:cjc116_1005"
    INDEX 01 01:36:45
  TRACK 99 AUDIO
    TITLE "0:"
    INDEX 01 01:38:32
  TRACK 100 AUDIO
    TITLE "2:cjc116_1006"
    INDEX 01 01:38:69
  TRACK 101 AUDIO
    TITLE "0:"
    INDEX 01 01:40:27
  TRACK 102 AUDIO
    TITLE "2:cjc116_1007"
    INDEX 01 01:40:42
  TRACK 103 AUDIO
    TITLE "0:"
    INDEX 01 01:42:67
  TRACK 104 AUDIO
    TITLE "2:cjc116_1008"
    INDEX 01 01:43:25
  TRACK 105 AUDIO
    TITLE "0:"
    INDEX 01 01:45:24
  TRACK 106 AUDIO
    TITLE "2:cjc116_1009"
    INDEX 01 01:45:67
  TRACK 107 AUDIO
    TITLE "0:"
    INDEX 01 01:47:13
  TRACK 108 AUDIO
    TITLE "2:cjc116_1010"
    INDEX 01 01:47:33
  TRACK 109 AUDIO
    TITLE "0:"
    INDEX 01 01:49:08
  TRACK 110 AUDIO
    TITLE "2:cjc116_1011"
    INDEX 01 01:49:45
  TRACK 111 AUDIO
    TITLE "0:"
    INDEX 01 01:51:21
  TRACK 112 AUDIO
    TITLE "2:cjc116_1012"
    INDEX 01 01:51:66
  TRACK 113 AUDIO
    TITLE "0:"
    INDEX 01 01:53:33
  TRACK 114 AUDIO
    TITLE "2:cjc116_1013"
    INDEX 01 01:53:45
  TRACK 115 AUDIO
    TITLE "0:"
    INDEX 01 01:55:48
  TRACK 116 AUDIO
    TITLE "2:cjc116_1014"
    INDEX 01 01:56:02
  TRACK 117 AUDIO
    TITLE "0:"
    INDEX 01 01:57:51
  TRACK 118 AUDIO
    TITLE "2:cjc116_1015"
    INDEX 01 01:58:21
  TRACK 119 AUDIO
    TITLE "0:"
    INDEX 01 01:59:30
  TRACK 120 AUDIO
    TITLE "2:cjc116_1016"
    INDEX 01 01:59:48
  TRACK 121 AUDIO
    TITLE "0:"
    INDEX 01 02:01:68
  TRACK 122 AUDIO
    TITLE "2:cjc116_1017"
    INDEX 01 02:02:24
  TRACK 123 AUDIO
    TITLE "0:"
    INDEX 01 02:04:43
  TRACK 124 AUDIO
    TITLE "2:cjc116_1018"
    INDEX 01 02:05:13
  TRACK 125 AUDIO
    TITLE "0:"
    INDEX 01 02:06:22
  TRACK 126 AUDIO
    TITLE "2:cjc116_1019"
    INDEX 01 02:06:34
  TRACK 127 AUDIO
    TITLE "0:"
    INDEX 01 02:08:52
  TRACK 128 AUDIO
    TITLE "2:cjc116_1020"
    INDEX 01 02:09:15
  TRACK 129 AUDIO
    TITLE "0:"
    INDEX 01 02:10:61
  TRACK 130 AUDIO
    TITLE "2:cjc116_1021"
    INDEX 01 02:11:29
  TRACK 131 AUDIO
    TITLE "0:"
    INDEX 01 02:12:35
  TRACK 132 AUDIO
    TITLE "2:cjc116_1022"
    INDEX 01 02:12:60
  TRACK 133 AUDIO
    TITLE "0:"
    INDEX 01 02:14:04
  TRACK 134 AUDIO
    TITLE "2:cjc116_1023"
    INDEX 01 02:14:39
  TRACK 135 AUDIO
    TITLE "0:"
    INDEX 01 02:16:50
  TRACK 136 AUDIO
    TITLE "2:cjc116_1024"
    INDEX 01 02:17:16
  TRACK 137 AUDIO
    TITLE "0:"
    INDEX 01 02:18:43
  TRACK 138 AUDIO
    TITLE "2:cjc116_1025"
    INDEX 01 02:18:57
  TRACK 139 AUDIO
    TITLE "0:"
    INDEX 01 02:20:44
  TRACK 140 AUDIO
    TITLE "2:cjc116_1026"
    INDEX 01 02:21:00
  TRACK 141 AUDIO
    TITLE "0:"
    INDEX 01 02:22:74
  TRACK 142 AUDIO
    TITLE "2:cjc116_1027"
    INDEX 01 02:23:42
  TRACK 143 AUDIO
    TITLE "0:"
    INDEX 01 02:24:67
  TRACK 144 AUDIO
    TITLE "2:cjc116_1028"
    INDEX 01 02:25:12
  TRACK 145 AUDIO
    TITLE "0:"
    INDEX 01 02:27:03
  TRACK 146 AUDIO
    TITLE "2:cjc116_1029"
    INDEX 01 02:27:36
  TRACK 147 AUDIO
    TITLE "0:"
    INDEX 01 02:29:64
  TRACK 148 AUDIO
    TITLE "2:cjc116_1030"
    INDEX 01 02:30:32
  TRACK 149 AUDIO
    TITLE "0:"
    INDEX 01 02:31:30
  TRACK 150 AUDIO
    TITLE "2:cjc116_1031"
    INDEX 01 02:31:46
  TRACK 151 AUDIO
    TITLE "0:"
    INDEX 01 02:33:19
  TRACK 152 AUDIO
    TITLE "2:cjc116_1032"
    INDEX 01 02:33:58
  TRACK 153 AUDIO
    TITLE "0:"
    INDEX 01 02:35:49
  TRACK 154 AUDIO
    TITLE "2:cjc116_1033"
    INDEX 01 02:36:21
  TRACK 155 AUDIO
    TITLE "0:"
    INDEX 01 02:37:15
  TRACK 156 AUDIO
    TITLE "2:cjc116_1034"
    INDEX 01 02:37:40
  TRACK 157 AUDIO
    TITLE "0:"
    INDEX 01 02:39:26
  TRACK 158 AUDIO
    TITLE "2:cjc116_1035"
    INDEX 01 02:39:65
  TRACK 159 AUDIO
    TITLE "0:"
    INDEX 01 02:41:60
  TRACK 160 AUDIO
    TITLE "2:cjc116_1036"
    INDEX 01 02:42:24
  TRACK 161 AUDIO
    TITLE "0:"
    INDEX 01 02:43:17
  TRACK 162 AUDIO
    TITLE "2:cjc116_1037"
    INDEX 01 02:43:33
  TRACK 163 AUDIO
    TITLE "0:"
    INDEX 01 02:45:44
  TRACK 164 AUDIO
    TITLE "2:cjc116_1038"
    INDEX 01 02:46:04
  TRACK 165 AUDIO
    TITLE "0:"
    INDEX 01 02:47:72
  TRACK 166 AUDIO
    TITLE "2:cjc116_1039"
    INDEX 01 02:48:40
  TRACK 167 AUDIO
    TITLE "0:"
    INDEX 01 02:49:38
  TRACK 168 AUDIO
    TITLE "2:cjc116_1040"
    INDEX 01 02:49:61
  TRACK 169 AUDIO
    TITLE "0:"
    INDEX 01 02:52:14
  TRACK 170 AUDIO
    TITLE "2:cjc116_1041"
    INDEX 01 02:52:44
  TRACK 171 AUDIO
    TITLE "0:"
    INDEX 01 02:54:31
  TRACK 172 AUDIO
    TITLE "2:cjc116_1042"
    INDEX 01 02:54:70
  TRACK 173 AUDIO
    TITLE "0:"
    INDEX 01 02:56:20
  TRACK 174 AUDIO
    TITLE "2:cjc116_1043"
    INDEX 01 02:56:46
  TRACK 175 AUDIO
    TITLE "0:"
    INDEX 01 02:58:31
  TRACK 176 AUDIO
    TITLE "2:cjc116_1044"
    INDEX 01 02:58:70
  TRACK 177 AUDIO
    TITLE "0:"
    INDEX 01 03:00:39
  TRACK 178 AUDIO
    TITLE "2:cjc116_1045"
    INDEX 01 03:01:08
  TRACK 179 AUDIO
    TITLE "0:"
    INDEX 01 03:02:32
  TRACK 180 AUDIO
    TITLE "2:cjc116_1046"
    INDEX 01 03:02:50
  TRACK 181 AUDIO
    TITLE "0:"
    INDEX 01 03:04:72
  TRACK 182 AUDIO
    TITLE "2:cjc116_1047"
    INDEX 01 03:05:43
  TRACK 183 AUDIO
    TITLE "0:"
    INDEX 01 03:07:55
  TRACK 184 AUDIO
    TITLE "2:cjc116_1048"
    INDEX 01 03:08:23
  TRACK 185 AUDIO
    TITLE "0:"
    INDEX 01 03:09:40
  TRACK 186 AUDIO
    TITLE "2:cjc116_1049"
    INDEX 01 03:09:68
  TRACK 187 AUDIO
    TITLE "0:"
    INDEX 01 03:11:45
  TRACK 188 AUDIO
    TITLE "2:cjc116_1050"
    INDEX 01 03:12:09
  TRACK 189 AUDIO
    TITLE "0:"
    INDEX 01 03:14:32
  TRACK 190 AUDIO
    TITLE "2:cjc116_1051"
    INDEX 01 03:15:00
  TRACK 191 AUDIO
    TITLE "0:"
    INDEX 01 03:16:01
  TRACK 192 AUDIO
    TITLE "2:cjc116_1052"
    INDEX 01 03:16:21
  TRACK 193 AUDIO
    TITLE "0:"
    INDEX 01 03:17:48
  TRACK 194 AUDIO
    TITLE "2:cjc116_1053"
    INDEX 01 03:18:08
  TRACK 195 AUDIO
    TITLE "0:"
    INDEX 01 03:19:43
  TRACK 196 AUDIO
    TITLE "2:cjc116_1054"
    INDEX 01 03:20:09
  TRACK 197 AUDIO
    TITLE "0:"
    INDEX 01 03:21:06
  TRACK 198 AUDIO
    TITLE "2:cjc116_1055"
    INDEX 01 03:21:26
  TRACK 199 AUDIO
    TITLE "0:"
    INDEX 01 03:22:57
  TRACK 200 AUDIO
    TITLE "2:cjc116_1056"
    INDEX 01 03:23:17
  TRACK 201 AUDIO
    TITLE "0:"
    INDEX 01 03:24:63
  TRACK 202 AUDIO
    TITLE "2:cjc116_1057"
    INDEX 01 03:25:30
  TRACK 203 AUDIO
    TITLE "0:"
    INDEX 01 03:26:54
  TRACK 204 AUDIO
    TITLE "2:cjc116_1058"
    INDEX 01 03:26:72
  TRACK 205 AUDIO
    TITLE "0:"
    INDEX 01 03:28:69
  TRACK 206 AUDIO
    TITLE "2:cjc116_1059"
    INDEX 01 03:29:35
  TRACK 207 AUDIO
    TITLE "0:"
    INDEX 01 03:31:44
  TRACK 208 AUDIO
    TITLE "2:cjc116_1060"
    INDEX 01 03:32:10
  TRACK 209 AUDIO
    TITLE "0:"
    INDEX 01 03:33:08
  TRACK 210 AUDIO
    TITLE "2:cjc116_1061"
    INDEX 01 03:33:35
  TRACK 211 AUDIO
    TITLE "0:"
    INDEX 01 03:34:70
  TRACK 212 AUDIO
    TITLE "2:cjc116_1062"
    INDEX 01 03:35:38
  TRACK 213 AUDIO
    TITLE "0:"
    INDEX 01 03:37:01
  TRACK 214 AUDIO
    TITLE "2:cjc116_1063"
    INDEX 01 03:37:45
  TRACK 215 AUDIO
    TITLE "0:"
    INDEX 01 03:38:58
  TRACK 216 AUDIO
    TITLE "2:cjc116_1064"
    INDEX 01 03:39:02
  TRACK 217 AUDIO
    TITLE "0:"
    INDEX 01 03:40:39
  TRACK 218 AUDIO
    TITLE "2:cjc116_1065"
    INDEX 01 03:40:74
  TRACK 219 AUDIO
    TITLE "0:"
    INDEX 01 03:42:57
  TRACK 220 AUDIO
    TITLE "2:cjc116_1066"
    INDEX 01 03:43:18
  TRACK 221 AUDIO
    TITLE "0:"
    INDEX 01 03:44:07
  TRACK 222 AUDIO
    TITLE "2:cjc116_1067"
    INDEX 01 03:44:27
  TRACK 223 AUDIO
    TITLE "0:"
    INDEX 01 03:45:54
  TRACK 224 AUDIO
    TITLE "2:cjc116_1068"
    INDEX 01 03:46:20
  TRACK 225 AUDIO
    TITLE "0:"
    INDEX 01 03:48:07
  TRACK 226 AUDIO
    TITLE "2:cjc116_1069"
    INDEX 01 03:48:44
  TRACK 227 AUDIO
    TITLE "0:"
    INDEX 01 03:49:52
  TRACK 228 AUDIO
    TITLE "2:cjc116_1070"
    INDEX 01 03:49:73
  TRACK 229 AUDIO
    TITLE "0:"
    INDEX 01 03:51:35
  TRACK 230 AUDIO
    TITLE "2:cjc116_1071"
    INDEX 01 03:51:66
  TRACK 231 AUDIO
    TITLE "0:"
    INDEX 01 03:53:00
  TRACK 232 AUDIO
    TITLE "2:cjc116_1072"
    INDEX 01 03:53:42
  TRACK 233 AUDIO
    TITLE "0:"
    INDEX 01 03:54:41
  TRACK 234 AUDIO
    TITLE "2:cjc116_1073"
    INDEX 01 03:54:57
  TRACK 235 AUDIO
    TITLE "0:"
    INDEX 01 03:55:70
  TRACK 236 AUDIO
    TITLE "2:cjc116_1074"
    INDEX 01 03:56:32
  TRACK 237 AUDIO
    TITLE "0:"
    INDEX 01 03:58:02
  TRACK 238 AUDIO
    TITLE "2:cjc116_1075"
    INDEX 01 03:58:43
  TRACK 239 AUDIO
    TITLE "0:"
    INDEX 01 03:59:36
  TRACK 240 AUDIO
    TITLE "2:cjc116_1076"
    INDEX 01 03:59:64
  TRACK 241 AUDIO
    TITLE "0:"
    INDEX 01 04:01:27
  TRACK 242 AUDIO
    TITLE "2:cjc116_1077"
    INDEX 01 04:01:61
  TRACK 243 AUDIO
    TITLE "0:"
    INDEX 01 04:03:63
  TRACK 244 AUDIO
    TITLE "2:cjc116_1078"
    INDEX 01 04:04:34
  TRACK 245 AUDIO
    TITLE "0:"
    INDEX 01 04:05:37
  TRACK 246 AUDIO
    TITLE "2:cjc116_1079"
    INDEX 01 04:05:58
  TRACK 247 AUDIO
    TITLE "0:"
    INDEX 01 04:07:30
  TRACK 248 AUDIO
    TITLE "2:cjc116_1080"
    INDEX 01 04:07:59
  TRACK 249 AUDIO
    TITLE "0:"
    INDEX 01 04:09:58
